inDegrees=no
num_controls=7
num_derivatives=13
num_iterations=127
num_multipliers=7
num_parameters=0
num_slacks=7
num_states=26
objective=5.828169
objective_accelerations=0.824611
objective_balance=0.049473
objective_effort=0.283302
objective_height=4.647198
objective_ligament=0.023586
solver_duration=1408.996716
status=Solve_Succeeded
success=true
DataType=double
version=3
OpenSimVersion=4.4-2022-07-23-0e9fedc
endheader
time	/jointset/ground_pelvis/pelvis_tilt/value	/jointset/ground_pelvis/pelvis_tx/value	/jointset/ground_pelvis/pelvis_ty/value	/jointset/hip_l/hip_flexion_l/value	/jointset/hip_l/hip_adduction_l/value	/jointset/hip_l/hip_rotation_l/value	/jointset/back/lumbar_extension/value	/jointset/patellofemoral_l/patellar_flexion_l/value	/jointset/knee_l/knee_flexion_l/value	/jointset/knee_l/knee_adduction_l/value	/jointset/knee_l/knee_rotation_l/value	/jointset/ankle_l/ankle_angle_l/value	/jointset/subtalar_l/subtalar_angle_l/value	/jointset/ground_pelvis/pelvis_tilt/speed	/jointset/ground_pelvis/pelvis_tx/speed	/jointset/ground_pelvis/pelvis_ty/speed	/jointset/hip_l/hip_flexion_l/speed	/jointset/hip_l/hip_adduction_l/speed	/jointset/hip_l/hip_rotation_l/speed	/jointset/back/lumbar_extension/speed	/jointset/patellofemoral_l/patellar_flexion_l/speed	/jointset/knee_l/knee_flexion_l/speed	/jointset/knee_l/knee_adduction_l/speed	/jointset/knee_l/knee_rotation_l/speed	/jointset/ankle_l/ankle_angle_l/speed	/jointset/subtalar_l/subtalar_angle_l/speed	/forceset/tau_hip_flexion_l	/forceset/tau_hip_adduction_l	/forceset/tau_hip_rotation_l	/forceset/tau_knee_flexion_l	/forceset/tau_ankle_angle_l	/forceset/tau_subtalar_angle_l	/forceset/tau_lumbar_extension	lambda_cid13_p0	lambda_cid13_p1	lambda_cid13_p2	lambda_cid13_p3	lambda_cid13_p4	lambda_cid13_p5	lambda_cid14_p0	/jointset/ground_pelvis/pelvis_tilt/accel	/jointset/ground_pelvis/pelvis_tx/accel	/jointset/ground_pelvis/pelvis_ty/accel	/jointset/hip_l/hip_flexion_l/accel	/jointset/hip_l/hip_adduction_l/accel	/jointset/hip_l/hip_rotation_l/accel	/jointset/back/lumbar_extension/accel	/jointset/patellofemoral_l/patellar_flexion_l/accel	/jointset/knee_l/knee_flexion_l/accel	/jointset/knee_l/knee_adduction_l/accel	/jointset/knee_l/knee_rotation_l/accel	/jointset/ankle_l/ankle_angle_l/accel	/jointset/subtalar_l/subtalar_angle_l/accel	gamma_cid13_p0	gamma_cid13_p1	gamma_cid13_p2	gamma_cid13_p3	gamma_cid13_p4	gamma_cid13_p5	gamma_cid14_p0
1.5	-0.3217327019989739	0.01511493470028719	0.7526292496142628	1.072087942842157	-0.4406110790124292	-0.2080131160437212	-0.2234218153701595	0.9142954408765154	0.9142954408764352	-0.08402521252977181	-0.1556479296591065	0.2389192568239967	0.04007807371397668	0.5463762714778209	0.1772610777343821	0.5844144086421897	-2.376145143100231	0.2242964624543713	-0.7402771628422008	0.3213646183195672	-2.300848374828631	-2.300848374828642	-0.262850543121092	0.1109997468918695	-0.6802454651850759	-0.1305958110413836	-0.1536218773295435	0.03722560018417404	-0.01153012311693664	-0.2195554317297273	-0.006501990761335708	0.03643228413389171	0.1543133977017552	-33.26602603393035	-13.45436625417327	5.757191506222652	-4.847599833730276	-516.8470515131895	-60.99739368827413	-19.84706240643284	0.601611882889977	0.628024086665202	-0.6087919645958159	-1.211298718690875	0.6737784762487629	-0.4131659760727267	1.424019419344038	-1.56638247404439	-1.566382474044401	0.1823198920405051	0.241329985297782	-0.775807381966984	0.4530603580582607	6.295396696723905e-07	-7.921036230127413e-07	-5.542510473855999e-06	-5.239694454407719e-07	1.053822922700535e-06	-5.515492113668922e-08	5.435524233784663e-07
1.51	-0.3162388358333506	0.01691877847482836	0.7584417686305168	1.048267491336144	-0.4383361819366284	-0.2154283936506024	-0.2201382442418903	0.8912110980008361	0.8912110980007405	-0.08665320223188275	-0.1545231227894931	0.2320784234238237	0.03879241714775918	0.5523101900826946	0.1834846032191321	0.5779604826469619	-2.387610153233984	0.230661515714272	-0.7426968001469036	0.3353135909022713	-2.315696397424807	-2.315696397424818	-0.2627131931089815	0.1139532435695509	-0.6878090328075364	-0.1265065173463529	-0.1480783718216544	0.03621583513800319	-0.01173952311234205	-0.215912568421108	-0.004742112560283369	0.03643563646565003	0.1497061128014716	-32.47722338329911	-13.66662970749978	5.874063315499166	-4.991415383009672	-512.6085093386849	-61.20795886772618	-20.93227327597803	0.576419300391436	0.6159059439660148	-0.6827566147780997	-1.063668371891847	0.6158054445630999	-0.1433887290566161	1.374933713514878	-1.395575617026879	-1.395575617026909	-0.06584469913837765	0.3196665877807479	-0.7299168410904737	0.3923014668331617	7.43177567730147e-07	-1.18044360168672e-06	-6.751487894455765e-06	-6.722969736394091e-07	1.259518269628544e-06	1.791636663299626e-08	6.266712243648384e-07
1.52	-0.3106882029914569	0.01878413533713473	0.7641859356472599	1.024342476486537	-0.4359980469894868	-0.2228652728548207	-0.216716263880646	0.8679879622062067	0.8679879622062087	-0.08927887588483402	-0.1533693195374186	0.2251652972696807	0.03754874103681331	0.557729606731784	0.1895636952874225	0.5707440087399736	-2.397057811814695	0.2369440367222838	-0.7445974823071378	0.3490464649162159	-2.328606958605899	-2.328606958605911	-0.2623873332942704	0.1167990233983408	-0.6947040159781974	-0.122199719987019	-0.1425348663140348	0.03520607009175963	-0.01194892310615665	-0.2122697051125626	-0.002982234359247576	0.03643898879727508	0.1450988279009504	-31.68695464999993	-13.8771859467382	5.988425118146931	-5.204144762617608	-508.3763698960865	-61.50306727778844	-22.02615457308418	0.4987114917333178	0.5991374033730799	-0.7613015469479077	-0.8078284080824418	0.6572720258709185	-0.3093749471789431	1.380799705592327	-1.178890191027591	-1.178890191027552	0.2200218525607506	0.2197866155195369	-0.6420904916073913	0.4965610909188057	8.163241431411639e-07	-1.272686536277254e-06	-7.310515161938152e-06	-7.185318274928212e-07	1.374432089860091e-06	1.800402590294218e-07	6.725907189187902e-07
1.53	-0.305085899545959	0.0207094749796534	0.7698542003282047	1.000332983085247	-0.4335976791632806	-0.2303190520658684	-0.2131582987136845	0.8446454562215343	0.844645456221491	-0.09190012216705284	-0.1521878149449833	0.2181865630343858	0.03634901177747282	0.5626401175042716	0.1954708343351776	0.5627873572673487	-2.404492668933659	0.2431025703945959	-0.7460571240012176	0.3624911238188187	-2.339556623208628	-2.33955662320856	-0.2618417704442281	0.1195022127556469	-0.7009271388659246	-0.117723350199932	-0.1369886763713942	0.0342007447510282	-0.01199165742898168	-0.2087596643869887	-0.001246193390892121	0.03613293975962416	0.1404479654534705	-30.93156754081433	-13.92115599179913	6.046404194752403	-5.234371751044685	-504.3199140845566	-61.56154731166237	-23.12164593820737	0.4737255872632808	0.5813677280667832	-0.8308019202348415	-0.6589056712850154	0.5921806712894107	-0.04830838222769642	1.31798228443653	-1.002498808655776	-1.00249880864377	-0.02554174048271122	0.2942668532307596	-0.5951539515752425	0.427577701676818	8.464486882400202e-07	-1.050326361529131e-06	-7.178970391733334e-06	-6.562932148544325e-07	1.392890537976648e-06	4.367825438417578e-07	6.789859503882959e-07
1.54	-0.2994371900492848	0.02269285912716802	0.7754393074998602	0.9762596228512825	-0.431136318673672	-0.2377842376141909	-0.2094675502973272	0.8212035547480703	0.8212035547480004	-0.09451538586911103	-0.1509795421075102	0.211149051417373	0.03519492677181781	0.5670108169670143	0.2011725962866122	0.5541125068820726	-2.409831178351891	0.2491425694020167	-0.7468787497635113	0.3756031147951003	-2.348486056361773	-2.348486056361625	-0.2611908172625237	0.1221526724087366	-0.7064594923224504	-0.1130708692499194	-0.1314424864286444	0.03319541941035307	-0.01203439175184001	-0.2052496236614102	0.0004898475774711501	0.03582689072205202	0.1357971030060729	-30.175966687244	-13.96463355340338	6.103704816058052	-5.331135539939848	-500.2930469630926	-61.71148610050992	-24.21413383097722	0.390749229784486	0.5580619841087719	-0.9049413294781906	-0.3885588679363204	0.6335650928927441	-0.181771760821665	1.314266120328272	-0.7748439011107567	-0.7748439011107795	0.2410999188932346	0.2092406746762858	-0.5039366053673814	0.5317833235038193	8.730034538548908e-07	-8.034491203337631e-07	-6.998133351181578e-06	-5.909060701488664e-07	1.411979545233521e-06	6.857402116989573e-07	6.824843487762899e-07
1.55	-0.2937474227459464	0.02473217333103336	0.7809341828109153	0.9521431968715421	-0.4286152972424201	-0.2452553258110745	-0.2056476221576277	0.7976824583511642	0.7976824583510993	-0.09712309134946946	-0.1497454851300686	0.2040596858136581	0.0340881083780892	0.5708452718109118	0.2066495284701181	0.5447495636310865	-2.413092714518868	0.2550279266275952	-0.7472304001086705	0.388311352524645	-2.355378568592669	-2.355378568592488	-0.2603338921285961	0.1246586037745585	-0.7112892522281401	-0.1082738755134815	-0.1258402980440708	0.03187997924913298	-0.0119349757934359	-0.2020718319249618	0.002380494381393775	0.03536102921183103	0.1310811622658772	-29.39497313101732	-13.92853482512844	6.131618881559318	-5.339774439618318	-496.5016738184802	-61.81154894248586	-25.30145939776665	0.3653251785629262	0.5363047225282193	-0.9686310168882867	-0.2405895571220214	0.561915743751205	0.05518436578325279	1.23842850674471	-0.5933932667921961	-0.5933932667872464	0.01011858727744057	0.269991550079878	-0.4538894957741104	0.4573363588754492	8.954452126729956e-07	-5.283239547535276e-07	-6.760503042621397e-06	-5.218912689311174e-07	1.4317950662825e-06	9.257286469774132e-07	6.826450916573249e-07
